<?xml version="1.0" encoding="utf-8"?>
<!-- Generator: Adobe Illustrator 24.3.0, SVG Export Plug-In . SVG Version: 6.00 Build 0)  -->
<svg version="1.1" id="Capa_1" xmlns="http://www.w3.org/2000/svg" xmlns:xlink="http://www.w3.org/1999/xlink" x="0px" y="0px"
	 viewBox="0 0 512 512" style="enable-background:new 0 0 512 512;" xml:space="preserve">
<style type="text/css">
	.st0{fill:#0042E6;}
</style>
<g>
	<path class="st0" d="M170.7,80.3c0-27.7,22.5-50.2,50.2-50.2c2.5,0,4.9,0.2,7.2,0.5c-10.8,13.7-17.3,30.9-17.3,49.7v70.3h30.1V80.3
		c0-14,5.8-26.7,15.1-35.8c9.3,9.1,15.1,21.8,15.1,35.8v70.3h-30.1v60.2h-30.1v-60.2h-40.2V512h281.8L436,150.6h-59.6v60.2h-30.1
		v-60.2h-45.2V80.3c0-18.7-6.5-36-17.3-49.7c0,0,3.4-1,11.9-1c27.7,0,50.5,23,50.5,50.7v70.3h30.1V80.3c0-44.3-36-80.3-80.3-80.3h-5
		c-12.6,0-24.5,2.9-35.1,8.1C245.4,2.9,233.5,0,220.9,0c-44.3,0-80.3,36-80.3,80.3v70.3h30.1L170.7,80.3z"/>
	<path class="st0" d="M140.5,150.6H76L59.5,512h81V150.6z"/>
</g>
</svg>
