<svg id="Layer_1" data-name="Layer 1" xmlns="http://www.w3.org/2000/svg" viewBox="0 0 534.47 209.22"><defs><style>.cls-1{fill:#fff;}</style></defs><path class="cls-1" d="M68.17,108.23a27.16,27.16,0,0,0,17.94,6.58c12.26,0,23.62-7.48,32-15.85l16.44,44.25c-14,12.26-32.29,18.24-51.12,18.24C37.07,161.45,0,131,0,83.12,0,37.37,34.68,0,81,0c10.77,0,21.83,1.49,31.7,6,17.64,7.18,35.58,27.51,34.68,47.84Zm26.31-59.5a37,37,0,0,0-15.25-3.58c-20.93,0-32.29,17.93-32.29,37.07Z"/><path class="cls-1" d="M240.2,158.28c-1.33,20.06-17.9,42-37.52,48.35-8.59,3-18.89,2.82-27.73,2.24-14.33-1-30.9-4.22-42.56-12.91l16.08-32.51c8,5.57,17.34,9.79,27.13,10.44,13.13.87,25.15-3.12,27.32-17.61-8.13,3.06-17.29,3.89-25.89,3.31C143.59,157.37,125.44,131,127.57,99c2-29.85,22.93-56.28,54.93-54.16,9.55.64,18.69,3.89,27.27,8.29l.57-8.59L247.6,47Zm-33-66A23.17,23.17,0,0,0,189.56,83c-11.7-.78-23.37,8.76-24.16,20.7-.75,11.23,6.62,19.39,17.85,20.14s13.1-2.25,22.32-7.39Z"/><path class="cls-1" d="M295.48,104.22A20.32,20.32,0,0,0,309.66,106c8.92-2.07,15.93-9.44,20.61-17l19.46,29.44c-8.16,11.3-20.43,18.74-34.14,21.93-33.74,7.84-65.9-8.1-74-42.93-7.74-33.3,11.19-66.38,44.93-74.22,7.84-1.82,16.15-2.6,24.09-1,14.06,2.24,30.56,14,33.34,29Zm9.09-47.77a27.5,27.5,0,0,0-11.71,0C277.63,60,272.39,74.94,275.62,88.87Z"/><path class="cls-1" d="M391.65,100a20.4,20.4,0,0,0,13.72,4c9.16-.6,17.28-6.74,23.13-13.41L443,122.92c-9.9,9.85-23.24,15.21-37.31,16.13-34.63,2.26-63.82-18.72-66.15-54.46C337.25,50.41,361.34,20.8,396,18.53c8-.52,16.38.06,24,2.92,13.53,4.5,27.92,18.82,28.25,34.05ZM408.4,54.29a27.74,27.74,0,0,0-11.57-1.94c-15.64,1-23.25,15-22.32,29.28Z"/><path class="cls-1" d="M534.47,16.56,492.2,102.87l33.59,1.92-2,34.56-91.1-5.21,43-85.79-33.11-1.89,2-35Z"/></svg>