<svg id="Layer_1" data-name="Layer 1" xmlns="http://www.w3.org/2000/svg" viewBox="0 0 590.37 65.99"><defs><style>.cls-1{fill:#3bb54a;}.cls-2{fill:#fff;}</style></defs><path class="cls-1" d="M33,0A33,33,0,1,1,0,33H0A32.9,32.9,0,0,1,32.81,0Z"/><polygon class="cls-2" points="51.27 23.9 27.84 47.33 14.72 34.3 20.06 29.06 27.84 36.74 45.93 18.65 51.27 23.9"/><path class="cls-1" d="M102.68,41.7h-5V26.31a3.7,3.7,0,0,1-1.31.18h-4v-4.1H96a1.52,1.52,0,0,0,1.36-.71A3.08,3.08,0,0,0,97.83,20V17.61h4.85Z"/><path class="cls-1" d="M107.28,22.91a9.52,9.52,0,0,1,17.35,0,14.25,14.25,0,0,1,1.26,6.19v1.1a14.34,14.34,0,0,1-1.26,6.25,9.43,9.43,0,0,1-3.51,4,10.18,10.18,0,0,1-10.34,0,9.41,9.41,0,0,1-3.5-4A14.34,14.34,0,0,1,106,30.2V29.1A14.25,14.25,0,0,1,107.28,22.91Zm8.66-1.31a4.17,4.17,0,0,0-3.6,2A10.13,10.13,0,0,0,111,29.28V30a10.09,10.09,0,0,0,1.36,5.66,4.24,4.24,0,0,0,7.23,0A10,10,0,0,0,120.93,30v-.75a10,10,0,0,0-1.36-5.67A4.2,4.2,0,0,0,115.94,21.6Z"/><path class="cls-1" d="M129.52,22.91a9.52,9.52,0,0,1,17.35,0,14.25,14.25,0,0,1,1.26,6.19v1.1a14.34,14.34,0,0,1-1.26,6.25,9.3,9.3,0,0,1-3.51,4,9.53,9.53,0,0,1-13.84-4,14.49,14.49,0,0,1-1.25-6.25V29.1A14.4,14.4,0,0,1,129.52,22.91Zm8.66-1.31a4.17,4.17,0,0,0-3.6,2,10.13,10.13,0,0,0-1.36,5.67V30a10.09,10.09,0,0,0,1.36,5.66,4.24,4.24,0,0,0,7.23,0A10,10,0,0,0,143.17,30v-.75a10,10,0,0,0-1.36-5.67A4.17,4.17,0,0,0,138.18,21.6Z"/><path class="cls-1" d="M153.93,18.17a6.75,6.75,0,0,1,3.22-.77,6.83,6.83,0,0,1,3.24.77,5.73,5.73,0,0,1,2.25,2.14,6.13,6.13,0,0,1,0,6.09,5.73,5.73,0,0,1-2.25,2.14,6.83,6.83,0,0,1-3.24.77,6.75,6.75,0,0,1-3.22-.77,5.86,5.86,0,0,1-2.25-2.14,6,6,0,0,1,0-6.09A5.86,5.86,0,0,1,153.93,18.17Zm17.34-.56h4.78L159.53,41.7h-4.79Zm-14.12,3.3a2.27,2.27,0,0,0-1.68.69,2.58,2.58,0,0,0,0,3.51,2.27,2.27,0,0,0,1.68.69,2.33,2.33,0,0,0,1.72-.69,2.58,2.58,0,0,0,0-3.51A2.33,2.33,0,0,0,157.15,20.91Zm13.22,9.86a7.16,7.16,0,0,1,6.46,0,5.86,5.86,0,0,1,2.25,2.14,5.87,5.87,0,0,1-2.25,8.22,7.08,7.08,0,0,1-6.46,0A5.63,5.63,0,0,1,168.12,39a6.13,6.13,0,0,1,0-6.09A5.73,5.73,0,0,1,170.37,30.77Zm3.24,2.74a2.28,2.28,0,0,0-1.72.7,2.56,2.56,0,0,0,0,3.5,2.31,2.31,0,0,0,1.72.69,2.29,2.29,0,0,0,1.68-.69,2.56,2.56,0,0,0,0-3.5A2.26,2.26,0,0,0,173.61,33.51Z"/><path class="cls-1" d="M198.85,17.61l6.67,17.69L212,17.61h6.64V41.7h-4.92V25.56L207.45,41.7h-4.2L197,25.56V41.7h-4.93V17.61Z"/><path class="cls-1" d="M222.86,37.61a9.57,9.57,0,0,1-1.15-4.75,9.61,9.61,0,0,1,1.15-4.76,8,8,0,0,1,3.27-3.18,11.3,11.3,0,0,1,9.81,0,7.89,7.89,0,0,1,3.27,3.18,9.62,9.62,0,0,1,1.16,4.76,9.51,9.51,0,0,1-1.16,4.76,7.87,7.87,0,0,1-3.27,3.17,11.3,11.3,0,0,1-9.81,0A8,8,0,0,1,222.86,37.61Zm12.58-4.75a5.54,5.54,0,0,0-1.18-3.69,4.35,4.35,0,0,0-6.41,0,5.54,5.54,0,0,0-1.18,3.69,5.53,5.53,0,0,0,1.18,3.68,4.35,4.35,0,0,0,6.41,0A5.53,5.53,0,0,0,235.44,32.86Z"/><path class="cls-1" d="M260.3,32.1v9.6h-4.85V32.37c0-3-1.2-4.57-3.58-4.57a3.56,3.56,0,0,0-2.93,1.27,5.53,5.53,0,0,0-1,3.58V41.7h-4.86V24h4.24l.45,2.2A6.49,6.49,0,0,1,250,24.44a7.31,7.31,0,0,1,3.24-.64,7,7,0,0,1,5.09,1.93C259.64,27,260.3,29.14,260.3,32.1Z"/><path class="cls-1" d="M266.93,24.92a9.41,9.41,0,0,1,4.67-1.12,10.23,10.23,0,0,1,4.73,1.05,7.89,7.89,0,0,1,3.2,3,8.73,8.73,0,0,1,1.19,4.49,9.19,9.19,0,0,1-.14,1.66H267.74v.13a4.78,4.78,0,0,0,1.24,3,3.87,3.87,0,0,0,2.93,1.11,4.5,4.5,0,0,0,2.46-.64,3,3,0,0,0,1.29-1.88h4.78a6.94,6.94,0,0,1-1.34,3.17,7.28,7.28,0,0,1-2.82,2.22,9.54,9.54,0,0,1-4,.81,11.13,11.13,0,0,1-5.11-1.1,7.81,7.81,0,0,1-3.31-3.15,9.57,9.57,0,0,1-1.15-4.77,9.79,9.79,0,0,1,1.12-4.8A7.83,7.83,0,0,1,266.93,24.92Zm7.61,3.37a4.24,4.24,0,0,0-2.74-.87,4,4,0,0,0-2.67.91,3.76,3.76,0,0,0-1.29,2.46h8A3.81,3.81,0,0,0,274.54,28.29Z"/><path class="cls-1" d="M290.43,36.71l4.2-12.7h5.2L292,44.21a16.37,16.37,0,0,1-1.17,2.53,3.7,3.7,0,0,1-1.4,1.38,4.49,4.49,0,0,1-2.18.47h-4.72v-4.1h2.69a2.24,2.24,0,0,0,1.34-.31,3,3,0,0,0,.79-1.2l.45-1.17L281,24h5.17Z"/><path class="cls-1" d="M300.48,30h12v3.93h-12Z"/><path class="cls-1" d="M332.93,28a10.39,10.39,0,0,1,1.05,4.8,10.35,10.35,0,0,1-1.05,4.75,7.73,7.73,0,0,1-2.91,3.2,7.88,7.88,0,0,1-4.2,1.14,7,7,0,0,1-3.23-.71,6.41,6.41,0,0,1-2.28-1.91l-.48,2.41H315.6V17.61h4.85v8.64a6.61,6.61,0,0,1,5.34-2.45A8.18,8.18,0,0,1,330,24.89,7.42,7.42,0,0,1,332.93,28Zm-3.87,4.84a5.45,5.45,0,0,0-1.21-3.69,4.24,4.24,0,0,0-6.3,0,5.53,5.53,0,0,0-1.17,3.67,5.64,5.64,0,0,0,1.17,3.72A3.87,3.87,0,0,0,324.69,38a4,4,0,0,0,3.16-1.41A5.44,5.44,0,0,0,329.06,32.86Z"/><path class="cls-1" d="M354.09,41.7h-2.48q-3.35,0-3.27-2.89A6.73,6.73,0,0,1,346,41.12a6.92,6.92,0,0,1-3.4.79,7.69,7.69,0,0,1-4.77-1.36A4.52,4.52,0,0,1,336,36.71a5.07,5.07,0,0,1,2.08-4.35,10.12,10.12,0,0,1,6-1.54h3.52V30a2.3,2.3,0,0,0-.9-1.91,4.48,4.48,0,0,0-4.61-.12,2.29,2.29,0,0,0-1,1.59h-4.69a5.47,5.47,0,0,1,2.41-4.22,9.93,9.93,0,0,1,5.75-1.5,9,9,0,0,1,5.8,1.65,5.8,5.8,0,0,1,2,4.79v6.23a1.12,1.12,0,0,0,.28.89,1.23,1.23,0,0,0,.86.25h.55Zm-10-7.64a4,4,0,0,0-2.36.6,2,2,0,0,0-.84,1.71,1.78,1.78,0,0,0,.7,1.48,3.09,3.09,0,0,0,1.92.55,3.83,3.83,0,0,0,4.13-4v-.34Z"/><path class="cls-1" d="M364.42,41.91a9.92,9.92,0,0,1-4.82-1.12,7.82,7.82,0,0,1-3.19-3.18,9.89,9.89,0,0,1-1.12-4.75,9.83,9.83,0,0,1,1.12-4.77,7.78,7.78,0,0,1,3.21-3.17,10,10,0,0,1,4.83-1.12,8.91,8.91,0,0,1,5.79,1.81,7.76,7.76,0,0,1,2.75,5h-5a3.69,3.69,0,0,0-1.24-2.08,3.46,3.46,0,0,0-2.3-.78,3.7,3.7,0,0,0-3,1.41,5.69,5.69,0,0,0-1.14,3.69,5.68,5.68,0,0,0,1.14,3.68,3.7,3.7,0,0,0,3,1.41,3.56,3.56,0,0,0,2.36-.79A3.7,3.7,0,0,0,368,35h5a7.73,7.73,0,0,1-2.74,5.08A9,9,0,0,1,364.42,41.91Z"/><path class="cls-1" d="M380.46,17.61V31.55l7-7.54h5.43l-6.29,6.92L393.2,41.7h-5.61l-4.48-7.16-2.65,2.86v4.3h-4.85V17.61Z"/><path class="cls-1" d="M408.5,18.91a12.81,12.81,0,0,1,6.36-1.51A11.63,11.63,0,0,1,420,18.5a9.41,9.41,0,0,1,3.67,3.1,9.85,9.85,0,0,1,1.7,4.58h-5.09A5.68,5.68,0,0,0,418.33,23a5.51,5.51,0,0,0-3.61-1.19,6.06,6.06,0,0,0-3.48,1A6.31,6.31,0,0,0,409,25.56a10,10,0,0,0-.79,4.09,8.92,8.92,0,0,0,1.73,5.72,5.84,5.84,0,0,0,4.81,2.17,6.71,6.71,0,0,0,4-1.22,5.13,5.13,0,0,0,2.06-3.6v-.31h-6v-4.1h10.78V41.7H422l-.55-3a8,8,0,0,1-2.86,2.3,9.18,9.18,0,0,1-4.17.9,11.68,11.68,0,0,1-6-1.52,10.22,10.22,0,0,1-4-4.3,14,14,0,0,1-1.43-6.44,13.69,13.69,0,0,1,1.45-6.45A10.2,10.2,0,0,1,408.5,18.91Z"/><path class="cls-1" d="M445.94,41.7h-4.3l-.45-2.13A6.28,6.28,0,0,1,436,41.91,6.94,6.94,0,0,1,430.94,40c-1.31-1.28-2-3.4-2-6.39V24h4.86v9a6.45,6.45,0,0,0,.84,3.63,3,3,0,0,0,2.6,1.22,3.27,3.27,0,0,0,2.82-1.36,6.29,6.29,0,0,0,1-3.8V24h4.85Z"/><path class="cls-1" d="M466.74,41.7h-2.48q-3.35,0-3.27-2.89a6.7,6.7,0,0,1-2.37,2.31,7,7,0,0,1-3.41.79,7.69,7.69,0,0,1-4.77-1.36,4.52,4.52,0,0,1-1.81-3.84,5.1,5.1,0,0,1,2.08-4.35,10.13,10.13,0,0,1,6.05-1.54h3.51V30a2.3,2.3,0,0,0-.9-1.91,3.78,3.78,0,0,0-2.41-.7,3.83,3.83,0,0,0-2.2.58,2.32,2.32,0,0,0-1,1.59H449a5.5,5.5,0,0,1,2.41-4.22,10,10,0,0,1,5.75-1.5,9,9,0,0,1,5.8,1.65,5.8,5.8,0,0,1,2.05,4.79v6.23a1.12,1.12,0,0,0,.28.89,1.23,1.23,0,0,0,.86.25h.55Zm-10-7.64a4,4,0,0,0-2.36.6,2,2,0,0,0-.84,1.71,1.79,1.79,0,0,0,.71,1.48,3.05,3.05,0,0,0,1.91.55,3.83,3.83,0,0,0,4.13-4v-.34Z"/><path class="cls-1" d="M479.41,28.41h-1.93a3.64,3.64,0,0,0-3,1.24,5.39,5.39,0,0,0-1,3.38V41.7h-4.85V24H473l.45,2.65a5.55,5.55,0,0,1,2-2,6.27,6.27,0,0,1,3.13-.67h.83Z"/><path class="cls-1" d="M498.48,41.7H496q-3.33,0-3.27-2.89a6.7,6.7,0,0,1-2.37,2.31,7,7,0,0,1-3.41.79,7.73,7.73,0,0,1-4.77-1.36,4.54,4.54,0,0,1-1.8-3.84,5.07,5.07,0,0,1,2.08-4.35,10.1,10.1,0,0,1,6-1.54H492V30a2.32,2.32,0,0,0-.89-1.91,3.8,3.8,0,0,0-2.41-.7,3.86,3.86,0,0,0-2.21.58,2.36,2.36,0,0,0-1,1.59h-4.68a5.44,5.44,0,0,1,2.41-4.22A9.91,9.91,0,0,1,489,23.8a9,9,0,0,1,5.8,1.65,5.82,5.82,0,0,1,2.05,4.79v6.23a1.15,1.15,0,0,0,.27.89,1.23,1.23,0,0,0,.86.25h.55Zm-10-7.64a4,4,0,0,0-2.36.6,2,2,0,0,0-.85,1.71,1.79,1.79,0,0,0,.71,1.48,3.07,3.07,0,0,0,1.91.55,4.08,4.08,0,0,0,3-1.09A4,4,0,0,0,492,34.4v-.34Z"/><path class="cls-1" d="M517.63,32.1v9.6h-4.86V32.37q0-4.57-3.58-4.57a3.53,3.53,0,0,0-2.92,1.27,5.53,5.53,0,0,0-1,3.58V41.7h-4.85V24h4.23l.45,2.2a6.52,6.52,0,0,1,2.24-1.77,7.26,7.26,0,0,1,3.23-.64,7,7,0,0,1,5.1,1.93C517,27,517.63,29.14,517.63,32.1Z"/><path class="cls-1" d="M518.9,28.1V24h2.93v-5h4.85v5h4V28.1h-4v7.75a1.85,1.85,0,0,0,.4,1.34,1.74,1.74,0,0,0,1.32.42h2.52V41.7h-4c-3.37,0-5.06-1.68-5.06-5.06V28.1Z"/><path class="cls-1" d="M536.24,24.92a9.37,9.37,0,0,1,4.66-1.12,10.21,10.21,0,0,1,4.73,1.05,7.85,7.85,0,0,1,3.21,3A8.82,8.82,0,0,1,550,32.3a9.24,9.24,0,0,1-.13,1.66H537.05v.13a4.73,4.73,0,0,0,1.24,3,3.85,3.85,0,0,0,2.92,1.11,4.45,4.45,0,0,0,2.46-.64A3,3,0,0,0,545,35.71h4.79a7.05,7.05,0,0,1-1.34,3.17,7.39,7.39,0,0,1-2.83,2.22,9.49,9.49,0,0,1-4,.81,11.18,11.18,0,0,1-5.12-1.1,7.84,7.84,0,0,1-3.3-3.15A9.57,9.57,0,0,1,532,32.89a9.89,9.89,0,0,1,1.11-4.8A7.85,7.85,0,0,1,536.24,24.92Zm7.6,3.37a4.21,4.21,0,0,0-2.73-.87,4,4,0,0,0-2.67.91,3.76,3.76,0,0,0-1.29,2.46h8A3.78,3.78,0,0,0,543.84,28.29Z"/><path class="cls-1" d="M556.24,24.92a9.4,9.4,0,0,1,4.66-1.12,10.28,10.28,0,0,1,4.74,1.05,7.89,7.89,0,0,1,3.2,3A8.83,8.83,0,0,1,570,32.3a9.19,9.19,0,0,1-.14,1.66H557.05v.13a4.78,4.78,0,0,0,1.24,3,3.85,3.85,0,0,0,2.92,1.11,4.51,4.51,0,0,0,2.47-.64A3,3,0,0,0,565,35.71h4.78a6.94,6.94,0,0,1-1.34,3.17,7.28,7.28,0,0,1-2.82,2.22,9.57,9.57,0,0,1-4,.81,11.1,11.1,0,0,1-5.11-1.1,7.81,7.81,0,0,1-3.31-3.15A9.57,9.57,0,0,1,552,32.89a9.79,9.79,0,0,1,1.12-4.8A7.83,7.83,0,0,1,556.24,24.92Zm7.61,3.37a4.26,4.26,0,0,0-2.74-.87,4,4,0,0,0-2.67.91,3.76,3.76,0,0,0-1.29,2.46h8A3.81,3.81,0,0,0,563.85,28.29Z"/><path class="cls-1" d="M590.37,41.7h-4.23l-.48-2.44a6.57,6.57,0,0,1-5.51,2.65,8,8,0,0,1-4.2-1.12A7.73,7.73,0,0,1,573,37.61a10.46,10.46,0,0,1-1-4.79,10.21,10.21,0,0,1,1-4.73A7.68,7.68,0,0,1,576,24.92a8,8,0,0,1,4.22-1.12,6.41,6.41,0,0,1,5.33,2.41v-8.6h4.85Zm-4.78-8.81a5.64,5.64,0,0,0-1.17-3.72,3.87,3.87,0,0,0-3.13-1.41,3.91,3.91,0,0,0-3.15,1.41A5.54,5.54,0,0,0,577,32.86a5.54,5.54,0,0,0,1.19,3.68,4.22,4.22,0,0,0,6.28,0A5.53,5.53,0,0,0,585.59,32.89Z"/></svg>