<?xml version="1.0" encoding="utf-8"?>
<!-- Generator: Adobe Illustrator 24.3.0, SVG Export Plug-In . SVG Version: 6.00 Build 0)  -->
<svg version="1.1" id="Capa_1" xmlns="http://www.w3.org/2000/svg" xmlns:xlink="http://www.w3.org/1999/xlink" x="0px" y="0px"
	 viewBox="0 0 512 512" style="enable-background:new 0 0 512 512;" xml:space="preserve">
<style type="text/css">
	.st0{fill:#0042E6;}
</style>
<g>
	<path class="st0" d="M115.1,321.7l26.6,26.6l45.4-45.8c-43.6-51.9-52.9-120.6-32.6-178.7l60.4,60.4
		c-0.5,60.7,48.9,113.7,113.3,113.7c37.8,0,71.4-18.6,92-47.2l-68.5-68.5L304,229.6L127.3,52.9V93h-31l0-93h93v31l-40.1,0L304,185.8
		l47.5-47.5l83.5,83.5c13.7-39.2,5.4-85.2-26.9-117.5c-41.3-41.3-106.2-44-150.5-8.7l-50.1-50.1c72.2-62.7,181.7-59.9,250.5,8.9
		c34.7,34.7,53.9,80.9,53.9,130.1c0,101.4-82.5,183.9-183.9,183.9c-44.2,0-86-15.5-119.3-43.9l-45.3,45.7l26.7,26.7L75.1,511.9
		L0,436.8L115.1,321.7z"/>
	<path class="st0" d="M263.5,419h247.9v31H263.5V419z"/>
	<path class="st0" d="M170.6,481h185.9v31H170.6L170.6,481z"/>
</g>
</svg>
