<?xml version="1.0" encoding="utf-8"?>
<!-- Generator: Adobe Illustrator 24.3.0, SVG Export Plug-In . SVG Version: 6.00 Build 0)  -->
<svg version="1.1" id="Layer_1" xmlns="http://www.w3.org/2000/svg" xmlns:xlink="http://www.w3.org/1999/xlink" x="0px" y="0px"
	 viewBox="0 0 512 512" style="enable-background:new 0 0 512 512;" xml:space="preserve">
<style type="text/css">
	.st0{fill:#0042E6;}
</style>
<path class="st0" d="M505.1,168.1L265.1,2.8c-5.5-3.8-12.7-3.8-18.2,0L6.9,168.1c-4.4,3-6.9,7.9-6.9,13.2v309.3
	C0,502.4,9.6,512,21.3,512H64V256c0-11.8,9.6-21.3,21.3-21.3h341.3c11.8,0,21.3,9.6,21.3,21.3v256h42.7c11.8,0,21.3-9.6,21.3-21.3
	V181.3C512,176.1,509.4,171.1,505.1,168.1z"/>
<path class="st0" d="M197.3,405.3v16c0,8.8-7.2,16-16,16c-8.8,0-16-7.2-16-16v-16H128c-5.9,0-10.7,4.8-10.7,10.7v85.3
	c0,5.9,4.8,10.7,10.7,10.7h106.7c5.9,0,10.7-4.8,10.7-10.7V416c0-5.9-4.8-10.7-10.7-10.7H197.3z"/>
<path class="st0" d="M346.7,405.3v16c0,8.8-7.2,16-16,16c-8.8,0-16-7.2-16-16v-16h-37.3c-5.9,0-10.7,4.8-10.7,10.7v85.3
	c0,5.9,4.8,10.7,10.7,10.7H384c5.9,0,10.7-4.8,10.7-10.7V416c0-5.9-4.8-10.7-10.7-10.7H346.7z"/>
<path class="st0" d="M272,277.3v16c0,8.8-7.2,16-16,16c-8.8,0-16-7.2-16-16v-16h-37.3c-5.9,0-10.7,4.8-10.7,10.7v85.3
	c0,5.9,4.8,10.7,10.7,10.7h106.7c5.9,0,10.7-4.8,10.7-10.7V288c0-5.9-4.8-10.7-10.7-10.7H272z"/>
</svg>
